<svg xmlns="http://www.w3.org/2000/svg"  viewBox="0 0 24 24" width="24px" height="24px"><path d="M 21.800781 0 L 2.199219 0 C 0.984375 0 0 0.984375 0 2.199219 L 0 21.800781 C 0 23.015625 0.984375 24 2.199219 24 L 21.800781 24 C 23.015625 24 24 23.015625 24 21.800781 L 24 2.199219 C 24 0.984375 23.015625 0 21.800781 0 Z M 19.050781 14.089844 C 20.492188 15.429688 20.789063 16.078125 20.839844 16.160156 C 21.4375 17.148438 20.179688 17.226563 20.179688 17.226563 L 17.773438 17.261719 C 17.773438 17.261719 17.257813 17.363281 16.578125 16.894531 C 15.679688 16.277344 14.828125 14.671875 14.171875 14.882813 C 13.5 15.09375 13.519531 16.539063 13.519531 16.539063 C 13.519531 16.539063 13.527344 16.792969 13.375 16.960938 C 13.207031 17.136719 12.882813 17.117188 12.882813 17.117188 L 11.808594 17.117188 C 11.808594 17.117188 9.433594 17.316406 7.34375 15.140625 C 5.0625 12.765625 3.050781 8.078125 3.050781 8.078125 C 3.050781 8.078125 2.933594 7.785156 3.058594 7.636719 C 3.199219 7.46875 3.585938 7.464844 3.585938 7.464844 L 6.15625 7.449219 C 6.15625 7.449219 6.398438 7.492188 6.574219 7.617188 C 6.71875 7.722656 6.796875 7.921875 6.796875 7.921875 C 6.796875 7.921875 7.214844 8.972656 7.761719 9.925781 C 8.839844 11.78125 9.339844 12.1875 9.703125 11.988281 C 10.234375 11.695313 10.074219 9.363281 10.074219 9.363281 C 10.074219 9.363281 10.085938 8.515625 9.808594 8.136719 C 9.59375 7.847656 9.1875 7.761719 9.007813 7.738281 C 8.863281 7.71875 9.101563 7.382813 9.410156 7.230469 C 9.871094 7.007813 10.6875 6.992188 11.65625 7.003906 C 12.40625 7.011719 12.625 7.058594 12.917969 7.128906 C 13.804688 7.34375 13.503906 8.171875 13.503906 10.152344 C 13.503906 10.789063 13.390625 11.679688 13.847656 11.976563 C 14.046875 12.105469 14.527344 11.996094 15.730469 9.949219 C 16.304688 8.980469 16.730469 7.839844 16.730469 7.839844 C 16.730469 7.839844 16.824219 7.636719 16.972656 7.550781 C 17.121094 7.460938 17.320313 7.488281 17.320313 7.488281 L 20.027344 7.472656 C 20.027344 7.472656 20.839844 7.375 20.972656 7.742188 C 21.109375 8.128906 20.667969 9.027344 19.5625 10.5 C 17.746094 12.917969 17.546875 12.691406 19.050781 14.089844 Z"/></svg>